Coordinates
version=1
nRows=42
nColumns=38
inDegrees=no

Units are S.I. units (second, meters, Newtons, ...)
If the header above contains a line with 'inDegrees', this indicates whether rotational values are in degrees (yes) or radians (no).

endheader
time	pelvis_tilt	pelvis_list	pelvis_rotation	pelvis_tx	pelvis_ty	pelvis_tz	hip_flexion_r	hip_adduction_r	hip_rotation_r	knee_angle_r	ankle_angle_r	subtalar_angle_r	mtp_angle_r	hip_flexion_l	hip_adduction_l	hip_rotation_l	knee_angle_l	ankle_angle_l	subtalar_angle_l	mtp_angle_l	lumbar_extension	lumbar_bending	lumbar_rotation	arm_flex_r	arm_add_r	arm_rot_r	elbow_flex_r	pro_sup_r	wrist_flex_r	wrist_dev_r	arm_flex_l	arm_add_l	arm_rot_l	elbow_flex_l	pro_sup_l	wrist_flex_l	wrist_dev_l
0.58	-2.07597	1.47843	0.567714	0.732314	1.39238	1.0608	0.348306	-0.0287686	-0.215614	0.605846	-0.11234	0	0	-0.0928526	-0.0404977	-0.342944	0.119219	-0.177806	0	0	-0.15839	0.0656213	-0.076031	-0.0870718	-0.222411	0.149037	0.571886	1.55744	0	0	-0.0129163	-0.335463	0.207651	0.936795	1.25456	0	0
0.59	-2.05397	1.47567	0.555717	0.73371	1.38034	1.0603	0.344311	-0.0198202	-0.221706	0.52943	-0.116426	0	0	-0.109473	-0.0444399	-0.338591	0.110033	-0.179125	0	0	-0.159968	0.070781	-0.0821844	-0.0913449	-0.21261	0.119942	0.56525	1.5708	0	0	-0.00302141	-0.340354	0.210651	0.94943	1.25987	0	0
0.6	-2.03628	1.47361	0.547343	0.734935	1.36813	1.05937	0.33889	-0.0109003	-0.223671	0.450388	-0.123212	0	0	-0.126244	-0.04805	-0.335413	0.10164	-0.179957	0	0	-0.161404	0.0747816	-0.0878243	-0.0948431	-0.207406	0.107801	0.560048	1.5708	0	0	0.00608431	-0.346032	0.214216	0.962786	1.2655	0	0
0.61	-2.04086	1.47166	0.559379	0.735976	1.35589	1.05793	0.334645	-0.00266571	-0.222838	0.369829	-0.133979	0	0	-0.141088	-0.0504545	-0.333416	0.0939791	-0.179379	0	0	-0.161021	0.0772383	-0.0921261	-0.0975356	-0.20377	0.102721	0.5543	1.5708	0	0	0.0144697	-0.351863	0.217756	0.976371	1.27123	0	0
0.62	-2.0603	1.4702	0.585746	0.736983	1.34366	1.05604	0.331209	0.0039054	-0.220114	0.289758	-0.149711	0	0	-0.154779	-0.0515157	-0.330703	0.0866266	-0.177056	0	0	-0.15976	0.0783251	-0.0963225	-0.0992038	-0.200664	0.10052	0.547763	1.5708	0	0	0.0222988	-0.358105	0.221309	0.990473	1.27801	0	0
0.63	-2.0928	1.46921	0.624549	0.737927	1.33134	1.05373	0.32836	0.00895525	-0.213772	0.210726	-0.182149	0	0	-0.167837	-0.0511663	-0.327442	0.0789876	-0.172164	0	0	-0.157598	0.077919	-0.100489	-0.0997384	-0.198204	0.102365	0.539944	1.5708	0	0	0.0284393	-0.363393	0.221613	1.00546	1.28827	0	0
0.64	-2.15042	1.46819	0.687414	0.73879	1.31892	1.05088	0.328532	0.0117356	-0.203338	0.136854	-0.198889	0	0	-0.17865	-0.0490945	-0.325625	0.0721069	-0.168048	0	0	-0.152942	0.0755479	-0.1043	-0.0997066	-0.196335	0.108292	0.530919	1.5708	0	0	0.0334088	-0.369451	0.223099	1.0211	1.2956	0	0
0.65	-2.21565	1.46768	0.757308	0.739655	1.30639	1.04773	0.329541	0.0123548	-0.191166	0.0679975	-0.212445	0	0	-0.189586	-0.0455822	-0.323832	0.0652152	-0.1645	0	0	-0.148338	0.0718809	-0.108207	-0.0986586	-0.194945	0.116941	0.521107	1.5708	0	0	0.0374906	-0.37596	0.224496	1.0372	1.30364	0	0
0.66	-2.28428	1.46751	0.830318	0.740548	1.29377	1.04435	0.331474	0.011121	-0.179936	0.00605831	-0.219358	0	0	-0.200702	-0.0411522	-0.322403	0.0591238	-0.162038	0	0	-0.144267	0.0674634	-0.11218	-0.0970304	-0.195131	0.13187	0.511603	1.5708	0	0	0.0408411	-0.382777	0.226084	1.05397	1.31099	0	0
0.67	-2.36536	1.46702	0.915263	0.741343	1.28118	1.04078	0.342835	0.0070397	-0.183169	0	-0.191066	0	0	-0.209396	-0.0361603	-0.323024	0.0576686	-0.145387	0	0	-0.140264	0.0610209	-0.117152	-0.089758	-0.190169	0.138386	0.492151	1.5708	0	0	0.0390151	-0.384074	0.211279	1.07294	1.33844	0	0
0.68	-2.41766	1.46722	0.970343	0.742073	1.26852	1.03735	0.351638	0.00515593	-0.189102	0	-0.179166	0	0	-0.220504	-0.0332492	-0.326992	0.0580281	-0.139275	0	0	-0.139908	0.0572838	-0.119016	-0.0859108	-0.188196	0.144858	0.480937	1.5708	0	0	0.0414716	-0.388443	0.208958	1.08984	1.34724	0	0
0.69	-2.45378	1.46791	1.00913	0.742805	1.25555	1.034	0.358152	0.00471081	-0.198018	0	-0.16577	0	0	-0.232248	-0.0322065	-0.333798	0.061474	-0.13312	0	0	-0.141002	0.0549716	-0.120526	-0.0816841	-0.186519	0.151204	0.46926	1.5708	0	0	0.0431351	-0.391654	0.206007	1.10561	1.35487	0	0
0.7	-2.47311	1.4692	1.03142	0.743475	1.24231	1.03077	0.362532	0.00594465	-0.208532	0	-0.151821	0	0	-0.244345	-0.0333939	-0.341564	0.0680816	-0.127482	0	0	-0.143711	0.0541232	-0.122014	-0.0771679	-0.184911	0.157574	0.457404	1.5708	0	0	0.0442975	-0.394292	0.203069	1.12038	1.36112	0	0
0.71	-2.48026	1.47078	1.04207	0.744069	1.22894	1.02766	0.365412	0.00886563	-0.216793	0	-0.138972	0	0	-0.255921	-0.036587	-0.348261	0.0775239	-0.12318	0	0	-0.1476	0.0544649	-0.123621	-0.0725117	-0.183364	0.163135	0.446103	1.5708	0	0	0.0452992	-0.396562	0.200456	1.13409	1.36591	0	0
0.72	-2.4824	1.47188	1.0479	0.744589	1.21541	1.02464	0.368359	0.0130976	-0.220272	0	-0.129741	0	0	-0.266574	-0.0409473	-0.351868	0.0875928	-0.120553	0	0	-0.151243	0.0558196	-0.12509	-0.0687959	-0.182506	0.167965	0.436986	1.5708	0	0	0.0463145	-0.398086	0.19873	1.14539	1.36939	0	0
0.73	-2.46813	1.47385	1.03758	0.745091	1.20168	1.02193	0.369693	0.0186816	-0.221143	0	-0.120925	0	0	-0.276978	-0.0474862	-0.357817	0.10229	-0.117873	0	0	-0.156754	0.058202	-0.127241	-0.0633861	-0.18333	0.182983	0.426679	1.5708	0	0	0.046391	-0.399555	0.196692	1.15581	1.37333	0	0
0.74	-2.45243	1.47541	1.02569	0.745638	1.18767	1.01944	0.371305	0.0247149	-0.218234	0	-0.119763	0	0	-0.28728	-0.0538819	-0.359334	0.115141	-0.117761	0	0	-0.16144	0.0614024	-0.128468	-0.0607165	-0.181215	0.177455	0.418786	1.5708	0	0	0.0464585	-0.399484	0.195613	1.16283	1.37579	0	0
0.75	-2.41764	1.47834	0.994719	0.74628	1.17334	1.01739	0.36995	0.0316536	-0.213701	0	-0.122655	0	0	-0.29808	-0.0622308	-0.365825	0.132943	-0.117946	0	0	-0.168237	0.0654995	-0.130004	-0.0568674	-0.179587	0.173873	0.409709	1.5708	0	0	0.0452106	-0.398033	0.192992	1.1684	1.37837	0	0
0.76	-2.36405	1.48147	0.944792	0.746956	1.15858	1.01569	0.366119	0.0405345	-0.207744	0	-0.13201	0	0	-0.309126	-0.0725665	-0.374826	0.15358	-0.1193	0	0	-0.175335	0.0707991	-0.131426	-0.0536232	-0.178511	0.169818	0.401327	1.5708	0	0	0.0425642	-0.395101	0.189497	1.17169	1.38094	0	0
0.77	-2.295	1.48419	0.879738	0.74773	1.14322	1.01425	0.359542	0.0510589	-0.200963	0	-0.147752	0	0	-0.320244	-0.0847136	-0.384336	0.175734	-0.122949	0	0	-0.181296	0.0771265	-0.132855	-0.0524626	-0.177986	0.164521	0.394547	1.5708	0	0	0.038557	-0.391215	0.186758	1.17219	1.38418	0	0
0.78	-2.21068	1.48551	0.799663	0.748518	1.12727	1.01302	0.35067	0.0635578	-0.193498	0	-0.171018	0	0	-0.331113	-0.0990542	-0.392095	0.198059	-0.129602	0	0	-0.185553	0.084893	-0.133822	-0.0539683	-0.178048	0.158545	0.389984	1.5708	0	0	0.0333154	-0.386239	0.184857	1.16983	1.3872	0	0
0.79	-2.11498	1.48403	0.708112	0.749196	1.11102	1.01206	0.341448	0.078263	-0.185262	0	-0.202523	0	0	-0.340757	-0.116659	-0.395314	0.219245	-0.139968	0	0	-0.188255	0.0950198	-0.133717	-0.0571233	-0.178728	0.152145	0.387479	1.5708	0	0	0.0279072	-0.380414	0.18454	1.16446	1.38955	0	0
0.8	-2.02073	1.47882	0.61702	0.749708	1.09471	1.01152	0.333917	0.0941763	-0.176236	0	-0.236688	0	0	-0.348707	-0.137848	-0.392439	0.235809	-0.155593	0	0	-0.18962	0.108096	-0.131524	-0.0605731	-0.179971	0.144294	0.386102	1.5708	0	0	0.0234252	-0.3737	0.18636	1.15528	1.39171	0	0
0.81	-1.99321	1.46736	0.586728	0.749185	1.07842	1.01072	0.333382	0.101823	-0.131307	0	-0.325768	0	0	-0.345523	-0.16164	-0.395863	0.256672	-0.219166	0	0	-0.182489	0.121788	-0.122086	-0.0673324	-0.180564	0.129784	0.387173	1.5708	0	0	0.0193595	-0.365557	0.189858	1.14089	1.39544	0	0
0.82	-1.89581	1.45865	0.493405	0.750913	1.06225	1.01188	0.323351	0.126966	-0.153144	0	-0.334419	0	0	-0.346162	-0.185017	-0.389959	0.283253	-0.25223	0	0	-0.18616	0.141801	-0.117855	-0.0711953	-0.183717	0.110064	0.389594	1.5708	0	0	0.0200151	-0.352535	0.196533	1.11996	1.39673	0	0
0.83	-1.89696	1.44505	0.492391	0.751564	1.04614	1.01224	0.324534	0.141555	-0.1318	0	-0.328167	0	0	-0.330504	-0.207584	-0.388154	0.320397	-0.330932	0	0	-0.176627	0.158771	-0.10881	-0.0777788	-0.18638	0.0917727	0.392831	1.5708	0	0	0.0178463	-0.34005	0.203774	1.09645	1.39692	0	0
0.84	-1.91694	1.43004	0.509561	0.752179	1.03028	1.01265	0.331619	0.155408	-0.110268	0.016206	-0.314563	0	0	-0.306702	-0.23026	-0.379825	0.365613	-0.378988	0	0	-0.163783	0.175601	-0.101054	-0.0824673	-0.191397	0.0877436	0.395107	1.5708	0	0	0.0135587	-0.327262	0.209234	1.07218	1.39565	0	0
0.85	-1.94775	1.41458	0.536903	0.752623	1.01464	1.013	0.344536	0.16882	-0.0938269	0.052544	-0.293418	0	0	-0.276127	-0.252562	-0.366656	0.416858	-0.434449	0	0	-0.148419	0.191285	-0.0944264	-0.0860663	-0.197132	0.0907145	0.397158	1.5708	0	0	0.00775844	-0.315491	0.214454	1.04755	1.39355	0	0
0.86	-1.97216	1.40043	0.558461	0.752905	0.999172	1.01332	0.355898	0.182225	-0.0818547	0.0864771	-0.269828	0	0	-0.242549	-0.274093	-0.348495	0.47249	-0.491674	0	0	-0.133753	0.204969	-0.0901964	-0.0880097	-0.203053	0.100854	0.399248	1.5708	0	0	0.000381197	-0.305835	0.219314	1.02464	1.38716	0	0
0.87	-1.9794	1.38929	0.564982	0.753172	0.983882	1.01375	0.360879	0.194829	-0.078853	0.114023	-0.24702	0	0	-0.20932	-0.294713	-0.327455	0.531047	-0.548576	0	0	-0.122824	0.21609	-0.0890121	-0.0890166	-0.20918	0.117894	0.403433	1.5708	0	0	-0.00747909	-0.29938	0.225625	1.00443	1.37503	0	0
0.88	-1.9707	1.38132	0.55905	0.753488	0.968898	1.01432	0.357633	0.205324	-0.0844129	0.132265	-0.227436	0	0	-0.176288	-0.314344	-0.30337	0.591772	-0.605818	0	0	-0.116183	0.224747	-0.0912775	-0.0879971	-0.214962	0.141331	0.408029	1.5708	0	0	-0.0150173	-0.295526	0.23268	0.986591	1.35837	0	0
0.89	-1.94882	1.37637	0.543305	0.754003	0.954233	1.0151	0.345657	0.2131	-0.0963914	0.139605	-0.216042	0	0	-0.143869	-0.331557	-0.274871	0.652619	-0.648631	0	0	-0.11386	0.231091	-0.0964143	-0.0859701	-0.220048	0.163461	0.415215	1.5708	0	0	-0.0223357	-0.29216	0.236907	0.970499	1.3445	0	0
0.9	-1.92057	1.37441	0.523057	0.754682	0.939769	1.01614	0.32731	0.218159	-0.113235	0.139663	-0.200819	0	0	-0.112652	-0.345066	-0.246091	0.709904	-0.698132	0	0	-0.1145	0.234743	-0.100846	-0.0850579	-0.220162	0.159699	0.423894	1.5708	0	0	-0.0218763	-0.300454	0.270325	0.95402	1.29795	0	0
0.91	-1.8982	1.37445	0.508871	0.755443	0.925587	1.01741	0.306553	0.220912	-0.129237	0.134114	-0.191836	0	0	-0.0809736	-0.352673	-0.213751	0.764573	-0.698132	0	0	-0.115829	0.235397	-0.105609	-0.0812417	-0.220999	0.16489	0.430218	1.5708	0	0	-0.0228645	-0.302867	0.290064	0.935848	1.26974	0	0
0.92	-1.88202	1.37668	0.498547	0.756094	0.911635	1.01905	0.284855	0.221938	-0.141394	0.126528	-0.185182	0	0	-0.0512903	-0.355141	-0.185362	0.813373	-0.698132	0	0	-0.118373	0.233023	-0.107445	-0.0758837	-0.220821	0.167163	0.435178	1.5708	0	0	-0.0224174	-0.303553	0.30774	0.915058	1.24907	0	0
0.93	-1.87427	1.38	0.493995	0.756547	0.897904	1.02102	0.268359	0.219736	-0.15784	0.129865	-0.176251	0	0	-0.0233181	-0.352995	-0.158846	0.856796	-0.677702	0	0	-0.120878	0.228583	-0.106243	-0.0702805	-0.220569	0.167843	0.440891	1.5708	0	0	-0.0202053	-0.304147	0.32766	0.891852	1.22919	0	0
0.94	-1.87231	1.38434	0.492847	0.756955	0.884313	1.02329	0.261365	0.213373	-0.194209	0.156035	-0.159947	0	0	0.002392	-0.346478	-0.133856	0.896286	-0.613414	0	0	-0.123323	0.222647	-0.10219	-0.0656459	-0.220819	0.166102	0.448994	1.5708	0	0	-0.0161625	-0.30503	0.35215	0.866693	1.20574	0	0
0.95	-1.87272	1.3899	0.490769	0.757291	0.870784	1.02586	0.255777	0.205154	-0.238181	0.187488	-0.146343	0	0	0.0250302	-0.337768	-0.116815	0.931272	-0.549463	0	0	-0.126573	0.215224	-0.094784	-0.0620568	-0.221186	0.158627	0.459997	1.5708	0	0	-0.0124097	-0.304071	0.374091	0.84063	1.18665	0	0
0.96	-1.73668	1.40418	0.339106	0.75771	0.855336	1.03007	0.217136	0.20013	-0.280332	0.214941	-0.133403	0	0	0.0236772	-0.369147	-0.314268	1.01648	-0.491344	0	0	-0.157937	0.208775	-0.0717725	-0.0686566	-0.228304	0.14531	0.493903	1.5708	0	0	-0.0114219	-0.303221	0.394706	0.823313	1.17108	0	0
0.97	-1.71394	1.41169	0.31074	0.757802	0.841724	1.03316	0.202429	0.191341	-0.309667	0.236398	-0.126784	0	0	0.0382258	-0.361008	-0.311566	1.03894	-0.433378	0	0	-0.164611	0.199297	-0.0628512	-0.0652426	-0.230083	0.14113	0.508748	1.5708	0	0	-0.0116053	-0.301775	0.408494	0.800928	1.16546	0	0
0.98	-1.68143	1.41953	0.273334	0.75791	0.828323	1.03639	0.184747	0.182648	-0.333545	0.253433	-0.121214	0	0	0.0510386	-0.352101	-0.308289	1.05491	-0.369561	0	0	-0.172779	0.189633	-0.0541346	-0.0644274	-0.227848	0.118458	0.528034	1.5708	0	0	-0.00843431	-0.306428	0.438963	0.781055	1.14458	0	0
0.99	-1.65467	1.42658	0.241165	0.757943	0.815122	1.03956	0.164514	0.176986	-0.343802	0.257976	-0.121992	0	0	0.0649929	-0.343126	-0.30511	1.0644	-0.316552	0	0	-0.179164	0.179929	-0.0474979	-0.0617765	-0.22803	0.108307	0.54713	1.5708	0	0	-0.0104551	-0.307582	0.453001	0.762997	1.13879	0	0
